<svg width="180" height="190" viewBox="0 0 180 190" fill="none" xmlns="http://www.w3.org/2000/svg">
<g clip-path="url(#clip0_59_333)">
<path d="M180 34.5347H13.5916V190H180V34.5347Z" fill="#B7B7BE"/>
<path d="M161.09 0H0V176.553H161.09V0Z" fill="white"/>
<path d="M161.09 176.553V34.5347H180L161.09 176.553Z" fill="#E1E2EA"/>
<g style="mix-blend-mode:multiply">
<path d="M161.09 34.5347H170.545L161.09 176.553V34.5347Z" fill="#D9D9D9"/>
</g>
<path d="M149.035 21.8878H12.0552V25.9159H149.035V21.8878Z" fill="#9FDADD"/>
<path d="M19.0282 33.2611L23.933 49.7879V33.2611H27.6264V57.7552H23.6671L18.585 41.9984V57.7552H14.8621V33.1426L19.0282 33.2611Z" fill="#58BFC7"/>
<path d="M30.9357 57.7552V33.1426H41.4839V37.0225H34.7472V43.7163H39.7406V47.4481H34.7472V54.1714H41.5726V57.7552H30.9357Z" fill="#58BFC7"/>
<path d="M59.2416 33.2906H63.1123L59.2712 57.7552H55.7551L53.6573 44.2197L51.6776 57.7552H48.132L44.0249 33.1722H47.8956L49.8457 46.3227L51.6185 33.1722H55.4301L57.3802 46.3227L59.2416 33.2906Z" fill="#58BFC7"/>
<path d="M77.2062 51.8317C77.2759 53.4114 76.807 54.9678 75.8766 56.2447C75.2345 57.0812 74.3451 57.6928 73.3355 57.9922C72.6627 58.1815 71.9659 58.2713 71.2672 58.2588C69.9856 58.3137 68.7239 57.9269 67.6921 57.1629C66.8561 56.5502 66.2024 55.7208 65.8011 54.7638C65.3125 53.6704 65.032 52.4952 64.9737 51.2986L68.4898 51.032C68.5382 52.1643 68.9415 53.2524 69.6422 54.1419C69.8286 54.3684 70.0635 54.55 70.3295 54.6731C70.5954 54.7961 70.8857 54.8575 71.1786 54.8527C71.5761 54.8337 71.9619 54.7119 72.2984 54.4991C72.635 54.2863 72.9108 53.9897 73.0991 53.6383C73.3808 53.1436 73.5141 52.5781 73.4833 52.0094C73.3963 50.8853 72.9024 49.8319 72.0946 49.0476L68.7853 45.9081C67.7796 44.9633 66.9051 43.8875 66.1852 42.7093C65.6419 41.6353 65.3585 40.4482 65.3579 39.244C65.2903 38.2728 65.4625 37.3 65.8593 36.4114C66.2562 35.5229 66.8653 34.746 67.633 34.1497C68.632 33.4384 69.8357 33.0744 71.0604 33.113C72.2544 33.0784 73.4334 33.3867 74.4583 34.0016C75.214 34.4685 75.8273 35.1344 76.2311 35.9268C76.7054 36.8454 76.9775 37.8555 77.0289 38.8886L73.4833 39.5402C73.446 38.6811 73.1469 37.8541 72.6264 37.1707C72.4253 36.9697 72.1822 36.8159 71.9147 36.7204C71.6471 36.6249 71.3618 36.59 71.0792 36.6183C70.7966 36.6467 70.5238 36.7374 70.2804 36.8842C70.037 37.0309 69.8291 37.2299 69.6717 37.4669C69.3698 38.0192 69.2267 38.6446 69.258 39.2736C69.3149 40.5557 69.8286 41.7747 70.7058 42.7093C71.1973 43.2825 71.7413 43.8081 72.3309 44.2791C72.9295 44.7506 73.5016 45.2548 74.0447 45.7896C74.8722 46.5983 75.5878 47.5148 76.172 48.5145C76.3789 48.9291 76.5857 49.3141 76.7334 49.6695C77.0175 50.3565 77.1776 51.0886 77.2062 51.8317Z" fill="#58BFC7"/>
<path d="M93.0433 64.7748H12.0552V70.2541H93.0433V64.7748Z" fill="#AFB4BD"/>
<path d="M93.0433 74.8448H12.0552V80.3242H93.0433V74.8448Z" fill="#AFB4BD"/>
<path d="M93.0433 84.915H12.0552V90.3944H93.0433V84.915Z" fill="#AFB4BD"/>
<path d="M150.01 94.9852H12.0552V100.465H150.01V94.9852Z" fill="#AFB4BD"/>
<path d="M150.01 105.085H12.0552V110.564H150.01V105.085Z" fill="#AFB4BD"/>
<path d="M60.6894 125.225H12.0552V130.705H60.6894V125.225Z" fill="#AFB4BD"/>
<path d="M150.01 135.295H12.0552V140.775H150.01V135.295Z" fill="#AFB4BD"/>
<path d="M150.01 145.366H45.0886V150.845H150.01V145.366Z" fill="#AFB4BD"/>
<path d="M150.01 155.436H45.0886V160.915H150.01V155.436Z" fill="#AFB4BD"/>
<path d="M149.98 64.7748H100.016V90.1575H149.98V64.7748Z" fill="#FEA11A"/>
<path d="M37.9974 145.366H12.0552V160.915H37.9974V145.366Z" fill="#FEA11A"/>
<g style="mix-blend-mode:multiply">
<path d="M80.545 0H0V176.553H80.545V0Z" fill="#DFE4EA"/>
</g>
</g>
<defs>
<clipPath id="clip0_59_333">
<rect width="180" height="190" fill="white"/>
</clipPath>
</defs>
</svg>
