<svg width="468" height="529" viewBox="0 0 468 529" fill="none" xmlns="http://www.w3.org/2000/svg">
<circle opacity="0.35" cx="234.433" cy="304.483" r="223.599" fill="#5AD593"/>
<circle cx="234.433" cy="304.483" r="212.951" fill="#5AD593"/>
<g clip-path="url(#clip0_2_214)">
<mask id="mask0_2_214" style="mask-type:luminance" maskUnits="userSpaceOnUse" x="67" y="174" width="334" height="294">
<path d="M67.6941 174.695H400.238V467.932H67.6941V174.695Z" fill="white"/>
</mask>
<g mask="url(#mask0_2_214)">
<path fill-rule="evenodd" clip-rule="evenodd" d="M207.382 182.537C207.382 182.537 161.87 197.058 148.139 214.869C136.173 230.364 122.623 280.935 105.134 314.938C88.6195 347.137 67.7867 364.763 67.7867 364.763C67.7867 364.763 65.374 436.717 92.2362 444.745C131.718 456.531 144.708 428.923 144.708 428.923L142.943 454.07C211.651 466.27 280.082 476.155 345.075 457.828L346.05 436.303C346.05 436.303 371.055 447.065 388.408 434.494C419.023 412.273 382.237 246.927 367.575 216.311C348.556 176.688 290.196 174.695 290.196 174.695L207.382 182.537Z" fill="#C6FDAD"/>
</g>
<path fill-rule="evenodd" clip-rule="evenodd" d="M146.565 440.339C146.565 440.339 146.887 437.092 147.257 432.73C147.442 430.41 147.676 427.768 147.862 425.17C148.325 417.561 148.466 409.952 148.466 409.952C148.51 408.929 147.769 408.095 146.75 408.047C145.775 407.954 144.893 408.7 144.844 409.718C144.844 409.718 144.06 417.278 143.499 424.887C143.314 427.534 143.221 430.132 143.129 432.496C142.943 436.859 142.851 440.105 142.851 440.105C142.807 441.128 143.548 441.962 144.567 442.055C145.59 442.103 146.468 441.357 146.565 440.339Z" fill="#1A282B"/>
<path fill-rule="evenodd" clip-rule="evenodd" d="M212.071 248.321C209.794 238.251 197.458 229.95 184.511 229.857C160.481 229.623 123.227 229.253 99.1479 229.019C86.2505 228.926 77.5792 236.998 79.8945 247.112C87.4106 280.33 103.276 350.242 110.841 383.461C113.113 393.526 125.454 401.788 138.396 401.924C162.431 402.158 199.68 402.48 223.759 402.714C236.657 402.851 245.333 394.779 243.013 384.669C235.497 351.451 219.631 281.539 212.071 248.321Z" fill="#1A282B"/>
<path fill-rule="evenodd" clip-rule="evenodd" d="M334.406 330.482C334.406 330.482 334.264 332.939 334.172 336.234C334.128 337.998 334.079 339.992 334.079 341.985C334.128 347.737 334.45 353.493 334.45 353.493C334.45 354.512 335.239 355.302 336.214 355.302C337.238 355.302 338.071 354.512 338.071 353.493C338.071 353.493 338.349 347.737 338.393 341.985C338.393 339.992 338.349 337.998 338.3 336.234C338.208 332.939 338.071 330.482 338.071 330.482C338.071 329.458 337.238 328.625 336.214 328.625C335.239 328.625 334.406 329.458 334.406 330.482Z" fill="#1A282B"/>
<path fill-rule="evenodd" clip-rule="evenodd" d="M255.817 380.351C250.48 380.629 218.982 378.357 194.021 366.435C186.042 362.633 185.857 354.049 190.078 349.224C197.038 341.288 229.374 343.053 229.374 343.053C229.374 343.053 223.389 339.109 221.21 337.486C218.193 335.259 218.705 329.044 222.833 328.254C232.572 326.397 272.936 341.196 272.936 341.196L255.817 380.351Z" fill="#FCBFA3"/>
<path fill-rule="evenodd" clip-rule="evenodd" d="M191.842 350.335C195.83 350.939 199.865 351.544 203.95 351.865C206.641 352.056 209.38 352.148 212.115 352.056C216.57 351.865 221.025 351.217 225.616 349.872C226.031 349.779 226.313 349.316 226.172 348.897C226.079 348.434 225.616 348.205 225.197 348.297C220.742 349.409 216.336 349.828 212.071 349.921C209.38 349.965 206.733 349.921 204.091 349.735C200.056 349.501 196.063 349.131 192.071 348.668C191.608 348.619 191.194 348.946 191.101 349.409C191.053 349.872 191.379 350.291 191.842 350.335Z" fill="#F7907F"/>
<path fill-rule="evenodd" clip-rule="evenodd" d="M190.59 357.344C194.577 357.944 198.613 358.597 202.654 358.875C205.388 359.104 208.079 359.153 210.862 359.06C215.317 358.919 219.772 358.222 224.315 356.925C224.778 356.784 225.012 356.321 224.919 355.901C224.778 355.487 224.364 355.209 223.901 355.346C219.446 356.462 215.083 356.876 210.769 356.969C208.127 357.018 205.437 356.925 202.839 356.784C198.803 356.506 194.811 356.135 190.775 355.716C190.356 355.624 189.893 355.999 189.849 356.413C189.8 356.876 190.127 357.295 190.59 357.344Z" fill="#F7907F"/>
<path fill-rule="evenodd" clip-rule="evenodd" d="M192.305 364.578C196.297 365.182 200.333 365.786 204.369 366.108C207.104 366.293 209.843 366.391 212.534 366.293C216.984 366.108 221.488 365.416 226.031 364.115C226.499 364.022 226.728 363.559 226.635 363.14C226.499 362.677 226.079 362.443 225.616 362.54C221.161 363.651 216.799 364.071 212.485 364.163C209.843 364.207 207.153 364.163 204.506 363.978C200.519 363.744 196.483 363.374 192.491 362.911C192.028 362.862 191.608 363.188 191.565 363.651C191.516 364.115 191.842 364.534 192.305 364.578Z" fill="#F7907F"/>
<path fill-rule="evenodd" clip-rule="evenodd" d="M67.6941 364.626C67.6941 364.626 74.3768 328.951 83.8865 318.789C97.944 303.854 119.425 304.731 128.472 307.144C136.173 309.186 127.819 318.511 127.819 318.511C131.625 319.159 132.508 326.724 128.886 329.273C132.6 330.341 132.737 337.16 128.004 338.227C137.192 342.96 125.918 351.402 113.532 352.84C106.571 353.679 106.201 374.087 106.201 374.087C91.4953 375.53 78.7831 372.094 67.6941 364.626Z" fill="#FCBFA3"/>
<path fill-rule="evenodd" clip-rule="evenodd" d="M127.911 317.721C125.874 317.399 123.831 317.258 121.789 317.214C119.747 317.214 117.704 317.351 115.667 317.628C111.675 318.14 107.732 319.159 103.837 320.412C103.369 320.504 103.14 320.972 103.276 321.387C103.418 321.806 103.837 322.04 104.251 321.942C108.151 320.831 112.001 319.997 115.896 319.534C117.894 319.252 119.839 319.066 121.789 319.066C123.739 319.022 125.732 319.066 127.682 319.3C128.145 319.393 128.564 319.066 128.608 318.652C128.657 318.189 128.379 317.77 127.911 317.721Z" fill="#F7907F"/>
<path fill-rule="evenodd" clip-rule="evenodd" d="M129.398 328.02C127.355 327.699 125.313 327.513 123.276 327.513C121.233 327.513 119.147 327.65 117.149 327.884C113.162 328.44 109.218 329.458 105.275 330.667C104.856 330.804 104.622 331.272 104.719 331.686C104.856 332.105 105.319 332.334 105.738 332.198C109.589 331.13 113.483 330.297 117.383 329.785C119.332 329.551 121.326 329.366 123.276 329.322C125.221 329.322 127.17 329.366 129.164 329.6C129.583 329.692 130.046 329.366 130.095 328.903C130.139 328.483 129.817 328.069 129.398 328.02Z" fill="#F7907F"/>
<path fill-rule="evenodd" clip-rule="evenodd" d="M129.398 337.813C127.355 337.486 125.313 337.345 123.276 337.301C121.233 337.301 119.147 337.438 117.149 337.72C113.162 338.227 109.218 339.251 105.275 340.504C104.856 340.596 104.622 341.059 104.719 341.473C104.856 341.893 105.319 342.127 105.738 342.034C109.589 340.918 113.483 340.084 117.383 339.573C119.332 339.343 121.326 339.158 123.276 339.158C125.221 339.109 127.17 339.158 129.164 339.436C129.583 339.48 130.046 339.158 130.095 338.69C130.139 338.276 129.817 337.857 129.398 337.813Z" fill="#F7907F"/>
<path fill-rule="evenodd" clip-rule="evenodd" d="M346.933 434.68C346.933 434.68 270.338 390.884 258.089 383.88L281.008 328.951L342.755 359.986C343.638 360.449 344.749 360.127 345.217 359.196C345.631 358.314 345.309 357.252 344.379 356.784L280.823 324.218C280.311 323.941 279.711 323.892 279.151 324.126C278.644 324.311 278.176 324.73 277.991 325.286L253.405 384.065C252.986 385.04 253.405 386.2 254.331 386.707L345.124 437.877C346.002 438.389 347.118 438.062 347.63 437.185C348.137 436.303 347.859 435.187 346.933 434.68Z" fill="#1A282B"/>
<path fill-rule="evenodd" clip-rule="evenodd" d="M260.409 23.3625C302.026 17.1916 305.501 91.1883 274.325 104.968L260.779 56.5808L216.521 57.7848L181.358 70.3117L180.895 88.0785L172.589 64.0044C172.589 64.0044 228.677 28.0954 260.409 23.3625Z" fill="#1A282B"/>
<path fill-rule="evenodd" clip-rule="evenodd" d="M264.723 124.918L225.012 131.367C225.012 131.367 224.875 159.155 221.858 169.128C219.168 178.175 212.948 182.026 212.948 182.026C217.311 212.782 275.164 209.721 280.637 174.417C280.637 174.417 272.751 171.356 269.085 163.747C264.586 154.33 264.723 124.918 264.723 124.918Z" fill="#FCBFA3"/>
<path fill-rule="evenodd" clip-rule="evenodd" d="M207.942 181.143C207.942 181.143 211.418 213.991 247.975 208.191C285.414 202.254 287.505 173.676 287.505 173.676L279.477 172.608C279.477 172.608 275.207 198.354 246.771 201.927C220.372 205.222 214.62 179.379 214.62 179.379L207.942 181.143Z" fill="#F2E8D5"/>
<path fill-rule="evenodd" clip-rule="evenodd" d="M222.507 166.16C248.16 162.821 259.761 153.54 263.377 139.39L222.692 141.476L222.507 166.16Z" fill="#F7907F"/>
<path fill-rule="evenodd" clip-rule="evenodd" d="M210.35 39.2771C177.273 45.5844 175.236 68.4107 180.105 100.284C185.623 136.422 200.192 159.57 233.269 156.231C259.39 153.589 279.199 129.554 276.231 100.976C272.702 67.2019 259.668 29.8112 210.35 39.2771Z" fill="#FCBFA3"/>
<path fill-rule="evenodd" clip-rule="evenodd" d="M273.448 80.2406C281.193 79.3584 288.197 84.7883 289.08 92.3484C289.913 99.9084 284.303 106.776 276.509 107.659C268.715 108.492 261.71 103.111 260.872 95.5508C260.039 87.9859 265.654 81.1229 273.448 80.2406Z" fill="#FCBFA3"/>
<path fill-rule="evenodd" clip-rule="evenodd" d="M269.597 34.6806C298.916 48.2311 283.235 83.7647 273.072 93.7424C265.654 80.5672 260.779 56.5808 260.779 56.5808C254.609 68.7811 211.418 75.6003 216.521 57.7847C209.097 64.4674 198.803 69.6146 181.358 70.3117C181.358 70.3117 183.956 84.0425 177.644 94.3419C168.646 86.041 171.429 71.0526 171.429 71.0526C150.226 73.1436 148.744 44.9361 164.795 46.608C164.795 46.608 144.338 30.1377 160.9 21.2763C165.906 18.5857 183.537 28.3732 189.43 22.9433C213.601 0.492287 261.384 -0.155995 269.597 34.6806Z" fill="#1A282B"/>
<path fill-rule="evenodd" clip-rule="evenodd" d="M241.39 80.0554C244.124 79.7288 246.586 81.8637 246.907 84.7396C247.19 87.6154 245.191 90.2134 242.457 90.4912C239.718 90.7691 237.212 88.639 236.934 85.7632C236.657 82.8824 238.65 80.3332 241.39 80.0554Z" fill="#1A282B"/>
<path fill-rule="evenodd" clip-rule="evenodd" d="M249.788 96.433C255.398 95.8725 260.316 98.4705 260.687 102.277C261.057 106.079 256.836 109.652 251.177 110.208C245.562 110.768 240.693 108.17 240.273 104.364C239.903 100.562 244.124 97.0326 249.788 96.433Z" fill="#F7907F"/>
<path fill-rule="evenodd" clip-rule="evenodd" d="M193.743 102.185C199.402 101.629 204.277 104.227 204.691 108.029C205.061 111.836 200.84 115.36 195.181 115.964C189.566 116.52 184.653 113.922 184.277 110.115C183.863 106.313 188.128 102.789 193.743 102.185Z" fill="#F7907F"/>
<path fill-rule="evenodd" clip-rule="evenodd" d="M200.655 85.1588C203.394 84.8809 205.9 87.0159 206.178 89.8917C206.456 92.7676 204.462 95.3168 201.723 95.6434C198.988 95.9212 196.527 93.7863 196.205 90.9105C195.922 88.0346 197.921 85.4805 200.655 85.1588Z" fill="#1A282B"/>
<path fill-rule="evenodd" clip-rule="evenodd" d="M235.545 72.6318C236.613 71.9835 237.724 71.6131 238.792 71.2865C239.952 70.9161 241.112 70.8235 242.272 70.7309C243.71 70.5895 245.148 70.5456 246.586 70.7309C247.604 70.8235 248.579 70.9599 249.554 71.1939C250.48 71.5205 251.504 71.0526 251.782 70.1264C252.103 69.2003 251.596 68.2255 250.714 67.8989C248.764 67.0166 246.771 66.4171 244.685 66.1831C243.754 66.0418 242.827 65.9979 241.901 66.0905C240.97 66.1393 240.044 66.3245 239.113 66.6023C237.12 67.2019 235.17 68.1767 233.41 69.7073C232.621 70.2678 232.435 71.3791 232.991 72.2126C233.596 73.0023 234.707 73.1875 235.545 72.6318Z" fill="#1A282B"/>
<path fill-rule="evenodd" clip-rule="evenodd" d="M206.27 72.4905C204.228 71.3792 202.142 70.7747 200.056 70.5895C199.081 70.4969 198.15 70.5457 197.224 70.6821C196.297 70.7747 195.415 71.0087 194.533 71.2865C192.539 71.9836 190.682 73.0023 188.967 74.2111C188.128 74.718 187.85 75.7855 188.362 76.6239C188.874 77.4574 189.893 77.7352 190.726 77.2234C191.657 76.8091 192.632 76.4825 193.558 76.156C194.952 75.6929 196.39 75.4638 197.828 75.2786C198.988 75.1372 200.099 75.0446 201.303 75.1372C202.463 75.1811 203.624 75.3712 204.784 75.7417C205.666 76.156 206.782 75.7417 207.153 74.8594C207.567 73.9772 207.153 72.8658 206.27 72.4905Z" fill="#1A282B"/>
<path fill-rule="evenodd" clip-rule="evenodd" d="M214.576 125.888C217.915 127.609 222.833 127.56 227.239 126.074C231.646 124.592 235.497 121.716 236.891 117.909C237.076 117.353 236.798 116.749 236.237 116.564C235.682 116.335 235.077 116.613 234.892 117.168C233.732 120.415 230.301 122.827 226.542 124.08C222.74 125.381 218.427 125.518 215.546 124.036C214.99 123.758 214.386 123.944 214.108 124.45C213.83 124.962 214.064 125.611 214.576 125.888Z" fill="#F7907F"/>
<path fill-rule="evenodd" clip-rule="evenodd" d="M214.898 82.3755C216.706 92.0217 215.921 99.6793 215.829 104.827C215.829 107.517 216.014 109.608 216.799 110.905C217.915 112.806 220.094 113.595 224.456 112.577C225.012 112.435 225.382 111.88 225.246 111.275C225.105 110.72 224.549 110.393 223.993 110.534C222.37 110.905 221.117 110.997 220.186 110.861C219.445 110.72 218.934 110.393 218.656 109.837C218.008 108.77 217.915 107.054 217.959 104.827C218.008 99.6305 218.841 91.8365 216.984 81.9563C216.847 81.4007 216.336 81.0302 215.736 81.1228C215.176 81.2154 214.805 81.7711 214.898 82.3755Z" fill="#F7907F"/>
</g>
<defs>
<clipPath id="clip0_2_214">
<rect width="467.932" height="467.932" fill="white"/>
</clipPath>
</defs>
</svg>
