<svg width="219" height="198" viewBox="0 0 219 198" fill="none" xmlns="http://www.w3.org/2000/svg">
<g clip-path="url(#clip0_59_175)">
<path d="M166.352 98.4337H160.733V161.626H166.352V98.4337Z" fill="#748035"/>
<path d="M124.325 86.2274C134.56 108.304 160.338 108.926 163.33 98.4337C166.373 89.3462 145.093 76.7097 124.325 86.2274Z" fill="#B3D234"/>
<path d="M182.764 88.8151C196.625 86.1265 204.408 85.6224 213.245 82.6212C171.41 61.8382 160.989 91.3962 163.334 98.4168C163.334 98.4336 168.903 91.5172 182.764 88.8151Z" fill="#A6BA39"/>
<path d="M213.245 82.6212C204.408 85.6224 196.625 86.1097 182.764 88.8151C169.701 91.3592 163.303 96.881 163.334 98.4337C169.941 115.281 207.727 105.595 213.245 82.6212Z" fill="#8AA53D"/>
<path d="M163.189 154.333V198H139.439L128.772 154.333H163.189Z" fill="#BF5A27"/>
<path d="M197.346 154.333L186.682 198H163.189V154.333H197.346Z" fill="#994722"/>
<path d="M201.611 145.599H124.759V154.333H201.611V145.599Z" fill="#F89F39"/>
<path d="M197.346 154.333L195.702 161.61H130.42L128.772 154.333H197.346Z" fill="#773618"/>
<path d="M4.53162 143.216L0 139.455L41.6336 89.531L74.5341 123.646L129.948 28.449L160.797 61.2737L186.204 35.8796L190.375 40.0369L160.665 69.7361L131.07 38.2389L75.7032 133.345L41.957 98.343L4.53162 143.216Z" fill="#E32B26"/>
<path d="M128.88 56.7399C128.88 60.3059 127.82 63.7918 125.834 66.7568C123.848 69.7218 121.025 72.0328 117.722 73.3976C114.419 74.7624 110.785 75.1197 107.279 74.4242C103.772 73.7288 100.552 72.0119 98.0235 69.4906C95.4954 66.9693 93.7736 63.7569 93.0757 60.2595C92.3779 56.7622 92.7353 53.137 94.1029 49.8422C95.4705 46.5475 97.7868 43.7313 100.759 41.7497C103.731 39.7681 107.226 38.71 110.801 38.7094C115.595 38.7094 120.193 40.6089 123.583 43.9902C126.974 47.3715 128.879 51.9576 128.88 56.7399Z" fill="#FAA819"/>
<path d="M112.017 38.7498V41.8854H109.588V38.7498C110.396 38.6926 111.208 38.6926 112.017 38.7498Z" fill="#F58A1F"/>
<path d="M106.39 39.2572L107.357 42.2382L105.046 42.991L104.069 40.0066C104.824 39.703 105.6 39.4526 106.39 39.2572Z" fill="#F58A1F"/>
<path d="M101.185 41.4719L103.038 44.0093L101.067 45.441L99.2171 42.9003C99.8395 42.3799 100.497 41.9026 101.185 41.4719Z" fill="#F58A1F"/>
<path d="M96.9294 45.1823L99.4731 47.0239L98.0412 48.99L95.4974 47.1483C95.9292 46.4611 96.4076 45.8042 96.9294 45.1823Z" fill="#F58A1F"/>
<path d="M94.0285 50.0251L97.017 50.9931L96.2656 53.3053L93.2772 52.3306C93.4736 51.5456 93.7246 50.7753 94.0285 50.0251Z" fill="#F58A1F"/>
<path d="M92.7684 55.5233H95.9152V57.9566H92.7684C92.7145 57.1464 92.7145 56.3335 92.7684 55.5233Z" fill="#F58A1F"/>
<path d="M93.2772 61.1425L96.2656 60.1713L97.017 62.4835L94.0285 63.4547C93.7241 62.7025 93.4731 61.9299 93.2772 61.1425Z" fill="#F58A1F"/>
<path d="M95.4941 66.3282L98.0412 64.4832L99.4698 66.4458L96.926 68.2943C96.4048 67.6718 95.9265 67.015 95.4941 66.3282Z" fill="#F58A1F"/>
<path d="M99.2171 70.583L101.067 68.0422L103.038 69.4739L101.185 72.008C100.496 71.5799 99.8385 71.1037 99.2171 70.583Z" fill="#F58A1F"/>
<path d="M104.069 73.4733L105.043 70.4889L107.357 71.2383L106.387 74.2193C105.598 74.0236 104.824 73.7743 104.069 73.4733Z" fill="#F58A1F"/>
<path d="M109.584 74.7268V71.5912H112.017V74.7301C111.207 74.7862 110.394 74.785 109.584 74.7268Z" fill="#F58A1F"/>
<path d="M115.228 74.2193L114.254 71.2383L116.569 70.4889L117.539 73.4733C116.786 73.7727 116.014 74.022 115.228 74.2193Z" fill="#F58A1F"/>
<path d="M120.413 72.008L118.567 69.4672L120.538 68.0422L122.384 70.5796C121.761 71.1013 121.103 71.5786 120.413 72.008Z" fill="#F58A1F"/>
<path d="M124.678 68.2942L122.128 66.4525L123.56 64.4899L126.107 66.3316C125.674 67.0163 125.197 67.6719 124.678 68.2942Z" fill="#F58A1F"/>
<path d="M127.576 63.4548L124.584 62.4835L125.335 60.1646L128.324 61.1325C128.13 61.9231 127.88 62.6992 127.576 63.4548Z" fill="#F58A1F"/>
<path d="M128.836 57.9566H125.689V55.5233H128.833C128.889 56.3334 128.89 57.1464 128.836 57.9566Z" fill="#F58A1F"/>
<path d="M128.327 52.334L125.339 53.3053L124.584 50.9964L127.576 50.0251C127.88 50.7763 128.131 51.5478 128.327 52.334Z" fill="#F58A1F"/>
<path d="M126.107 47.1483L123.56 48.9934L122.131 47.0239L124.678 45.1823C125.198 45.8047 125.676 46.4616 126.107 47.1483Z" fill="#F58A1F"/>
<path d="M122.387 42.9003L120.538 45.441L118.567 44.0093L120.416 41.4719C121.105 41.9023 121.764 42.3795 122.387 42.9003Z" fill="#F58A1F"/>
<path d="M117.532 39.9999L116.562 42.9877L114.244 42.2315L115.218 39.2505C116.006 39.4454 116.779 39.6959 117.532 39.9999Z" fill="#F58A1F"/>
<path d="M126.791 56.7399C126.791 59.8946 125.853 62.9784 124.096 65.6014C122.339 68.2244 119.842 70.2688 116.92 71.476C113.998 72.6832 110.783 72.9991 107.681 72.3837C104.579 71.7682 101.73 70.2491 99.4937 68.0184C97.2574 65.7877 95.7344 62.9457 95.1174 59.8516C94.5005 56.7576 94.8171 53.5505 96.0274 50.636C97.2376 47.7215 99.2872 45.2304 101.917 43.4778C104.546 41.7252 107.638 40.7897 110.801 40.7897C115.041 40.7897 119.109 42.4702 122.107 45.4614C125.106 48.4527 126.791 52.5097 126.791 56.7399Z" fill="#FFC708"/>
<path d="M115.639 56.7063C115.014 56.1013 113.965 55.6532 112.492 55.362L111.036 55.0696C110.529 54.9932 110.042 54.8197 109.601 54.5587C109.472 54.4633 109.368 54.3377 109.299 54.193C109.229 54.0483 109.197 53.8889 109.204 53.7286C109.193 53.5166 109.242 53.3059 109.347 53.1209C109.451 52.9359 109.606 52.7842 109.793 52.6834C110.36 52.4221 110.983 52.3066 111.606 52.3474C112.267 52.3539 112.925 52.4373 113.567 52.5961C114.298 52.7758 115.012 53.021 115.699 53.3287V50.5292C114.913 50.3214 114.115 50.1576 113.311 50.0385C113.078 50.0049 112.852 49.9881 112.637 49.9646V48.422H110.073V49.931C109.102 49.997 108.172 50.3478 107.401 50.9392C106.55 51.6517 106.124 52.6666 106.124 53.9841C106.1 54.4417 106.17 54.8993 106.328 55.3296C106.486 55.7598 106.729 56.1538 107.044 56.4879C107.657 57.1107 108.626 57.5588 109.952 57.8322L111.276 58.1212C111.849 58.2077 112.397 58.4125 112.886 58.7227C113.027 58.8575 113.136 59.0224 113.204 59.205C113.272 59.3877 113.298 59.5833 113.28 59.7774C113.261 59.9714 113.199 60.1588 113.098 60.3253C112.996 60.4919 112.858 60.6334 112.694 60.7392C112.167 61.0174 111.574 61.1464 110.979 61.1122C110.206 61.1081 109.437 60.995 108.695 60.7762C107.843 60.5278 107.019 60.1899 106.239 59.7679V62.6414C107.063 62.9521 107.913 63.1905 108.779 63.3539C109.21 63.4346 109.642 63.4951 110.073 63.532V65.0477H112.637V63.5253C113.598 63.4492 114.517 63.0992 115.285 62.5171C116.152 61.8091 116.586 60.7258 116.586 59.2672C116.579 58.1626 116.263 57.309 115.639 56.7063Z" fill="#FCEE3B"/>
<path d="M120.915 100.393C122.616 104.581 123.035 109.179 122.117 113.604C121.2 118.029 118.988 122.084 115.76 125.256C112.533 128.427 108.436 130.573 103.986 131.422C99.5361 132.271 94.9339 131.785 90.761 130.026C86.5881 128.266 83.0318 125.312 80.5417 121.537C78.0516 117.762 76.7394 113.335 76.7711 108.816C76.8027 104.297 78.1768 99.8891 80.7195 96.149C83.2623 92.4089 86.8597 89.5047 91.0568 87.8036C93.8459 86.6732 96.831 86.1021 99.8414 86.1231C102.852 86.1441 105.829 86.7567 108.602 87.9259C111.375 89.0951 113.889 90.7979 116.002 92.9371C118.115 95.0763 119.784 97.6099 120.915 100.393Z" fill="#FAA819"/>
<path d="M92.509 87.276L94.0083 90.9729L91.1512 92.1323L89.6485 88.4355C90.5751 87.9861 91.5307 87.5987 92.509 87.276Z" fill="#F58A1F"/>
<path d="M86.131 90.5493L88.7017 93.5942L86.3433 95.577L83.7725 92.5322C84.5125 91.8185 85.3005 91.1559 86.131 90.5493Z" fill="#F58A1F"/>
<path d="M81.0839 95.6274L84.47 97.7279L82.8393 100.349L79.4498 98.2388C79.9327 97.3313 80.4786 96.4587 81.0839 95.6274Z" fill="#F58A1F"/>
<path d="M77.8528 102.013L81.7275 102.967L80.9862 105.958L77.1116 105.001C77.2906 103.989 77.5382 102.991 77.8528 102.013Z" fill="#F58A1F"/>
<path d="M76.7578 109.081L80.7402 108.795L80.9592 111.867L76.9802 112.156C76.8401 111.136 76.7659 110.109 76.7578 109.081Z" fill="#F58A1F"/>
<path d="M77.9135 116.142L81.6196 114.646L82.782 117.493L79.0758 118.998C78.6218 118.074 78.2334 117.12 77.9135 116.142Z" fill="#F58A1F"/>
<path d="M81.1985 122.504L84.251 119.936L86.2388 122.288L83.1897 124.853C82.4722 124.117 81.8069 123.332 81.1985 122.504Z" fill="#F58A1F"/>
<path d="M86.2827 127.538L88.3884 124.177L91.013 125.804L88.9039 129.165C87.992 128.686 87.1159 128.143 86.2827 127.538Z" fill="#F58A1F"/>
<path d="M92.6842 130.758L93.641 126.896L96.6397 127.639L95.6862 131.504C94.6692 131.325 93.6662 131.076 92.6842 130.758Z" fill="#F58A1F"/>
<path d="M99.7697 131.853L99.4866 127.881L102.566 127.666L102.852 131.628C101.831 131.774 100.801 131.849 99.7697 131.853Z" fill="#F58A1F"/>
<path d="M106.848 130.7L105.349 127.004L108.206 125.844L109.709 129.541C108.783 129.992 107.827 130.38 106.848 130.7Z" fill="#F58A1F"/>
<path d="M113.223 127.43L110.656 124.386L113.014 122.403L115.581 125.427C114.844 126.15 114.056 126.82 113.223 127.43Z" fill="#F58A1F"/>
<path d="M118.26 122.339L114.874 120.238L116.508 117.62L119.877 119.724C119.399 120.632 118.858 121.505 118.26 122.339Z" fill="#F58A1F"/>
<path d="M121.504 115.97L117.63 115.012L118.375 112.025L122.246 112.979C122.068 113.992 121.821 114.991 121.504 115.97Z" fill="#F58A1F"/>
<path d="M122.599 108.896L118.62 109.178L118.398 106.106L122.377 105.824C122.524 106.841 122.598 107.868 122.599 108.896Z" fill="#F58A1F"/>
<path d="M121.447 101.838L117.741 103.33L116.575 100.494L120.282 99.0017C120.733 99.9201 121.123 100.868 121.447 101.838Z" fill="#F58A1F"/>
<path d="M118.166 95.4796L115.113 98.0439L113.122 95.6913L116.178 93.1271C116.893 93.8653 117.557 94.6513 118.166 95.4796Z" fill="#F58A1F"/>
<path d="M113.075 90.4417L110.969 93.8227L108.348 92.186L110.454 88.8252C111.364 89.3016 112.24 89.8418 113.075 90.4417Z" fill="#F58A1F"/>
<path d="M106.673 87.2154L105.713 91.0803L102.718 90.341L103.678 86.4761C104.692 86.6542 105.693 86.9012 106.673 87.2154Z" fill="#F58A1F"/>
<path d="M99.5844 86.1266L99.8741 90.099L96.7913 90.3175L96.5049 86.3484C97.5252 86.2055 98.5541 86.1314 99.5844 86.1266Z" fill="#F58A1F"/>
<path d="M118.466 101.384C119.973 105.09 120.346 109.159 119.536 113.076C118.726 116.992 116.769 120.582 113.914 123.39C111.059 126.197 107.433 128.098 103.495 128.85C99.5576 129.603 95.4846 129.174 91.7912 127.617C88.0979 126.061 84.9503 123.447 82.7463 120.106C80.5423 116.765 79.3809 112.847 79.4091 108.848C79.4372 104.848 80.6536 100.947 82.9044 97.6376C85.1552 94.3279 88.3393 91.7583 92.0541 90.2536C97.0364 88.2375 102.617 88.2775 107.57 90.3648C112.523 92.4521 116.442 96.4158 118.466 101.384Z" fill="#FFC708"/>
<path d="M105.342 106.654C104.332 106.237 102.88 106.214 101.006 106.567L99.1565 106.903C98.5244 107.062 97.8662 107.091 97.2226 106.987C97.0255 106.938 96.8435 106.841 96.693 106.705C96.5424 106.569 96.4281 106.398 96.3601 106.207C96.2466 105.963 96.2038 105.693 96.2365 105.426C96.2693 105.159 96.3763 104.907 96.5454 104.698C96.898 104.25 97.555 103.831 98.5163 103.441C99.2952 103.131 100.109 102.916 100.939 102.799C101.885 102.662 102.841 102.612 103.796 102.648L102.448 99.3579C101.427 99.4863 100.415 99.6737 99.416 99.9191C99.1296 99.9931 98.8533 100.077 98.5737 100.161L97.8357 98.3429L94.8203 99.5696L95.5414 101.337C94.4332 101.878 93.5095 102.732 92.8864 103.794C92.2125 105.031 92.1957 106.423 92.8359 107.972C93.3412 109.212 94.0993 110.045 95.1168 110.485C96.1343 110.926 97.4752 110.993 99.1834 110.687L100.868 110.401C101.902 110.227 102.627 110.21 103.051 110.348C103.268 110.421 103.464 110.543 103.625 110.705C103.787 110.866 103.909 111.063 103.981 111.279C104.092 111.527 104.132 111.8 104.099 112.069C104.066 112.338 103.96 112.594 103.793 112.808C103.308 113.387 102.673 113.822 101.956 114.065C101.041 114.417 100.082 114.643 99.106 114.737C97.9848 114.84 96.8561 114.831 95.7367 114.71L97.108 118.091C98.2251 118.061 99.3376 117.936 100.433 117.718C100.983 117.603 101.518 117.469 102.044 117.314L102.765 119.092L105.777 117.869L105.046 116.071C106.302 115.372 107.182 114.563 107.687 113.644C108.361 112.396 108.35 110.917 107.654 109.205C107.142 107.921 106.36 107.061 105.342 106.654Z" fill="#FCEE3B"/>
<path d="M57.5431 74.9015C57.5437 77.5929 56.7442 80.224 55.2458 82.4622C53.7473 84.7003 51.6173 86.445 49.1248 87.4755C46.6323 88.5061 43.8893 88.7763 41.2429 88.2519C38.5965 87.7275 36.1654 86.432 34.257 84.5294C32.3487 82.6268 31.0488 80.2025 30.5218 77.5629C29.9947 74.9234 30.2642 72.1873 31.2961 69.7005C32.328 67.2138 34.0761 65.0881 36.3191 63.5923C38.5622 62.0965 41.1995 61.2978 43.8977 61.2971C47.5155 61.2971 50.9852 62.7302 53.544 65.2814C56.1028 67.8325 57.5413 71.2928 57.5431 74.9015Z" fill="#FAA819"/>
<path d="M44.8108 61.3308V63.6833H42.9745V61.3308C43.5858 61.2854 44.1995 61.2854 44.8108 61.3308Z" fill="#F58A1F"/>
<path d="M40.5689 61.7106L41.3034 63.9623L39.5514 64.5303L38.8169 62.2786C39.387 62.049 39.9724 61.8592 40.5689 61.7106Z" fill="#F58A1F"/>
<path d="M36.6404 63.3842L38.0386 65.2998L36.5494 66.3786L35.158 64.463C35.6259 64.0688 36.1212 63.7083 36.6404 63.3842Z" fill="#F58A1F"/>
<path d="M33.4261 66.1837L35.3499 67.5751L34.2684 69.0605L32.348 67.6658C32.6725 67.1475 33.0328 66.6523 33.4261 66.1837Z" fill="#F58A1F"/>
<path d="M31.2395 69.8402L33.4968 70.5695L32.9275 72.3104L30.66 71.5912C30.8108 70.9944 31.0045 70.4093 31.2395 69.8402Z" fill="#F58A1F"/>
<path d="M30.2893 73.9874H32.6478V75.8258H30.2893C30.2472 75.2137 30.2472 74.5995 30.2893 73.9874Z" fill="#F58A1F"/>
<path d="M30.66 78.2287L32.9173 77.4994L33.4867 79.2403L31.2294 79.9763C30.9993 79.4076 30.809 78.8237 30.66 78.2287Z" fill="#F58A1F"/>
<path d="M32.3446 82.1441L34.265 80.7527L35.3466 82.2382L33.4227 83.6295C33.0278 83.161 32.6675 82.6646 32.3446 82.1441Z" fill="#F58A1F"/>
<path d="M35.1546 85.3704L36.5494 83.4514L38.0386 84.5302L36.6404 86.4425C36.1201 86.121 35.6236 85.7627 35.1546 85.3704Z" fill="#F58A1F"/>
<path d="M38.8169 87.538L39.5514 85.283L41.3034 85.8476L40.5655 88.1027C39.9711 87.9521 39.387 87.7635 38.8169 87.538Z" fill="#F58A1F"/>
<path d="M42.9847 88.4824V86.1299H44.8108V88.4824C44.2028 88.5256 43.5926 88.5256 42.9847 88.4824Z" fill="#F58A1F"/>
<path d="M47.2332 88.1027L46.4988 85.8476L48.2474 85.283L48.9819 87.538C48.4121 87.7645 47.828 87.9531 47.2332 88.1027Z" fill="#F58A1F"/>
<path d="M51.1584 86.4324L49.7601 84.5134L51.2494 83.4346L52.6408 85.3536C52.1725 85.7472 51.6772 86.1077 51.1584 86.4324Z" fill="#F58A1F"/>
<path d="M54.3726 83.6295L52.4488 82.2382L53.5303 80.7527L55.4542 82.1474C55.1257 82.6639 54.7644 83.1589 54.3726 83.6295Z" fill="#F58A1F"/>
<path d="M56.5626 79.9931L54.3019 79.2571L54.8713 77.5162L57.1287 78.2489C56.9793 78.8423 56.7902 79.425 56.5626 79.9931Z" fill="#F58A1F"/>
<path d="M57.5128 75.8258H55.1543V73.9874H57.5128C57.555 74.5995 57.555 75.2137 57.5128 75.8258Z" fill="#F58A1F"/>
<path d="M57.1287 71.5911L54.8713 72.3238L54.3019 70.5762L56.5626 69.8469C56.7916 70.4146 56.9808 70.9974 57.1287 71.5911Z" fill="#F58A1F"/>
<path d="M55.4542 67.6658L53.5303 69.0605L52.4521 67.5751L54.3726 66.1837C54.7667 66.6524 55.1282 67.1476 55.4542 67.6658Z" fill="#F58A1F"/>
<path d="M52.6442 64.463L51.2494 66.3786L49.7601 65.2998L51.1618 63.3842C51.6819 63.7068 52.1774 64.0675 52.6442 64.463Z" fill="#F58A1F"/>
<path d="M48.9819 62.2786L48.2474 64.5303L46.4988 63.9623L47.2332 61.7106C47.8288 61.8587 48.4131 62.0485 48.9819 62.2786Z" fill="#F58A1F"/>
<path d="M55.9663 74.9015C55.9677 77.2828 55.261 79.6109 53.9357 81.5915C52.6103 83.5721 50.7259 85.1161 48.5208 86.0283C46.3157 86.9405 43.8889 87.1798 41.5474 86.7161C39.2059 86.2523 37.0548 85.1063 35.3663 83.423C33.6778 81.7397 32.5277 79.5947 32.0615 77.2593C31.5953 74.9239 31.8339 72.5031 32.7472 70.303C33.6604 68.1029 35.2073 66.2223 37.1921 64.8993C39.1769 63.5762 41.5105 62.87 43.8977 62.87C45.4821 62.8696 47.0511 63.1804 48.5151 63.7848C49.9791 64.3892 51.3094 65.2753 52.4301 66.3926C53.5508 67.5098 54.4399 68.8363 55.0466 70.2962C55.6534 71.7562 55.9659 73.3211 55.9663 74.9015Z" fill="#FFC708"/>
<path d="M47.5499 74.8781C47.0816 74.4277 46.2899 74.0883 45.1746 73.8698L44.0763 73.6447C43.693 73.5912 43.3242 73.4621 42.9914 73.2649C42.8953 73.1921 42.8181 73.0973 42.7665 72.9885C42.7149 72.8797 42.6903 72.7601 42.6949 72.6398C42.686 72.4796 42.7232 72.3202 42.802 72.1803C42.8807 72.0404 42.9979 71.9258 43.1396 71.85C43.5665 71.6545 44.0354 71.5679 44.5042 71.598C45.0047 71.602 45.5032 71.6629 45.99 71.7795C46.5394 71.9198 47.0759 72.1064 47.5937 72.3373V70.2267C47.0007 70.0664 46.3988 69.9407 45.7912 69.8503C45.616 69.8268 45.4543 69.8134 45.2724 69.7966V68.6304H43.3351V69.7663C42.6003 69.8178 41.8971 70.0843 41.3135 70.5326C40.9876 70.8155 40.7312 71.1693 40.5642 71.5667C40.3971 71.9641 40.3238 72.3945 40.3499 72.8247C40.3313 73.1705 40.3833 73.5164 40.5026 73.8416C40.6219 74.1668 40.806 74.4646 41.044 74.7168C41.6637 75.2567 42.4265 75.6068 43.2407 75.725L44.2515 75.9468C44.6839 76.0109 45.0981 76.1643 45.4677 76.3972C45.5745 76.4993 45.6569 76.6241 45.7087 76.7624C45.7604 76.9007 45.7802 77.0488 45.7666 77.1958C45.753 77.3427 45.7063 77.4847 45.6301 77.6112C45.5539 77.7377 45.45 77.8454 45.3262 77.9263C44.9286 78.1355 44.4814 78.233 44.0324 78.2086C43.446 78.2022 42.8633 78.1152 42.3007 77.9498C41.658 77.7592 41.037 77.5024 40.4476 77.1836V79.358C41.0708 79.5884 41.712 79.7671 42.3647 79.8923C42.6877 79.9548 43.0138 79.9997 43.3417 80.0268V81.1694H45.279V80.0134C46.0026 79.9591 46.6957 79.7003 47.277 79.2672C47.9329 78.7295 48.2608 77.9095 48.2608 76.8072C48.2799 76.4543 48.2267 76.1013 48.1045 75.7696C47.9822 75.4379 47.7935 75.1346 47.5499 74.8781Z" fill="#FCEE3B"/>
<path d="M219 32.8112C219 39.3007 217.071 45.6444 213.456 51.0402C209.842 56.436 204.705 60.6415 198.694 63.1249C192.684 65.6083 186.07 66.258 179.689 64.992C173.308 63.726 167.447 60.601 162.847 56.0123C158.247 51.4235 155.114 45.5771 153.844 39.2124C152.575 32.8476 153.227 26.2504 155.716 20.2549C158.206 14.2595 162.422 9.13503 167.831 5.52969C173.241 1.92434 179.6 0 186.106 0C194.83 0.000891168 203.196 3.45808 209.365 9.61119C215.533 15.7643 218.999 24.1094 219 32.8112Z" fill="#FAA819"/>
<path d="M188.32 0.0772419V5.79056H183.889V0.0772419C185.364 -0.025259 186.845 -0.025259 188.32 0.0772419Z" fill="#F58A1F"/>
<path d="M178.071 1.01501L179.839 6.44267L175.628 7.81049L173.852 2.35932C175.225 1.8142 176.635 1.36501 178.071 1.01501Z" fill="#F58A1F"/>
<path d="M168.606 5.04785L171.976 9.66555L168.391 12.2634L165.022 7.639C166.155 6.69329 167.353 5.82749 168.606 5.04785Z" fill="#F58A1F"/>
<path d="M160.857 11.7694L165.49 15.1302L162.882 18.7061L158.253 15.3453C159.035 14.0935 159.906 12.8986 160.857 11.7694Z" fill="#F58A1F"/>
<path d="M155.581 20.5914L161.022 22.3558L159.654 26.5602L154.206 24.7991C154.568 23.3669 155.027 21.9611 155.581 20.5914Z" fill="#F58A1F"/>
<path d="M153.3 30.5897H159.028V35.0091H153.3C153.202 33.5376 153.202 32.0612 153.3 30.5897Z" fill="#F58A1F"/>
<path d="M154.206 40.8266L159.654 39.0588L161.022 43.2632L155.581 45.0309C155.026 43.663 154.566 42.2581 154.206 40.8266Z" fill="#F58A1F"/>
<path d="M158.249 50.2637L162.882 46.903L165.486 50.4788L160.857 53.8396C159.905 52.71 159.034 51.5151 158.249 50.2637Z" fill="#F58A1F"/>
<path d="M165.022 57.9969L168.391 53.3724L171.976 55.9703L168.606 60.5914C167.352 59.8117 166.154 58.9447 165.022 57.9969Z" fill="#F58A1F"/>
<path d="M173.852 63.2599L175.621 57.8323L179.836 59.1766L178.064 64.6076C176.63 64.2559 175.223 63.8056 173.852 63.2599Z" fill="#F58A1F"/>
<path d="M183.886 65.5418V59.8285H188.316V65.5418C186.841 65.6426 185.361 65.6426 183.886 65.5418Z" fill="#F58A1F"/>
<path d="M194.138 64.6311L192.366 59.1933L196.581 57.849L198.35 63.2767C196.979 63.8229 195.571 64.2755 194.138 64.6311Z" fill="#F58A1F"/>
<path d="M203.599 60.5914L200.23 55.9737L203.811 53.3759L207.181 58.0003C206.047 58.9439 204.851 59.8096 203.599 60.5914Z" fill="#F58A1F"/>
<path d="M211.352 53.8463L206.719 50.4855L209.324 46.9164L213.956 50.2772C213.17 51.5239 212.299 52.7163 211.352 53.8463Z" fill="#F58A1F"/>
<path d="M216.642 45.0411L211.197 43.2767L212.565 39.0724L218.013 40.8402C217.654 42.2704 217.195 43.6741 216.642 45.0411Z" fill="#F58A1F"/>
<path d="M218.926 35.0226H213.198V30.5897H218.926C219.026 32.0657 219.026 33.5466 218.926 35.0226Z" fill="#F58A1F"/>
<path d="M217.989 24.7992L212.541 26.567L211.177 22.3593L216.618 20.5948C217.172 21.9629 217.63 23.3677 217.989 24.7992Z" fill="#F58A1F"/>
<path d="M213.946 15.3587L209.313 18.7195L206.712 15.1436L211.342 11.7828C212.29 12.9144 213.16 14.1091 213.946 15.3587Z" fill="#F58A1F"/>
<path d="M207.187 7.62892L203.818 12.25L200.233 9.64871L203.603 5.03101C204.856 5.81388 206.054 6.68193 207.187 7.62892Z" fill="#F58A1F"/>
<path d="M198.353 2.3593L196.584 7.79705L192.383 6.42583L194.152 0.998169C195.581 1.35736 196.985 1.81211 198.353 2.3593Z" fill="#F58A1F"/>
<path d="M215.2 32.8112C215.2 38.5517 213.493 44.1633 210.296 48.9363C207.098 53.7092 202.554 57.4293 197.237 59.6259C191.92 61.8225 186.069 62.3971 180.425 61.277C174.781 60.1568 169.596 57.3922 165.527 53.3329C161.458 49.2735 158.687 44.1017 157.565 38.4714C156.443 32.8412 157.019 27.0054 159.222 21.7021C161.425 16.3987 165.155 11.8661 169.94 8.67733C174.725 5.48858 180.351 3.78693 186.106 3.7876C189.927 3.7876 193.711 4.53835 197.241 5.99696C200.77 7.45558 203.978 9.59351 206.679 12.2886C209.381 14.9838 211.524 18.1833 212.986 21.7046C214.448 25.2259 215.2 29 215.2 32.8112Z" fill="#FFC708"/>
<path d="M194.9 32.7541C193.777 31.6563 191.868 30.8396 189.172 30.3041L186.524 29.7698C185.262 29.5144 184.391 29.2063 183.913 28.8456C183.678 28.6721 183.49 28.4438 183.364 28.1807C183.238 27.9176 183.179 27.6277 183.192 27.3365C183.172 26.9504 183.262 26.5665 183.451 26.2292C183.641 25.892 183.922 25.6152 184.263 25.431C184.971 25.0277 186.069 24.8193 187.558 24.8193C188.763 24.8296 189.961 24.982 191.13 25.2731C192.463 25.5998 193.762 26.0498 195.011 26.6174V21.5157C193.579 21.1298 192.126 20.8301 190.658 20.6184C190.237 20.5612 189.822 20.5243 189.408 20.484V17.6743H184.742V20.4234C182.72 20.6475 181.098 21.2591 179.876 22.2584C178.322 23.549 177.547 25.3918 177.552 27.7869C177.552 29.7026 178.113 31.2239 179.236 32.3508C180.359 33.4778 182.124 34.3001 184.529 34.8176L186.938 35.352C188.407 35.6713 189.381 36.0242 189.876 36.4476C190.134 36.6923 190.333 36.9919 190.458 37.3241C190.583 37.6562 190.631 38.0122 190.599 38.3656C190.566 38.7189 190.454 39.0603 190.271 39.3643C190.087 39.6683 189.837 39.9269 189.539 40.1209C188.822 40.5746 187.777 40.7931 186.423 40.7931C185.012 40.7835 183.61 40.5741 182.259 40.1714C180.708 39.7135 179.209 39.0951 177.788 38.3263V43.5657C179.291 44.1245 180.838 44.5562 182.413 44.8563C183.197 45.0041 183.984 45.1162 184.772 45.1923V47.9516H189.438V45.1621C191.487 44.91 193.097 44.3118 194.256 43.3607C195.829 42.0635 196.615 40.0885 196.615 37.4357C196.604 35.4125 196.032 33.852 194.9 32.7541Z" fill="#FCEE3B"/>
<path d="M98.7993 186.587V198.013H82.0912C81.7517 198.015 81.4153 197.949 81.1013 197.821C80.7872 197.692 80.5017 197.503 80.261 197.264C80.0203 197.025 79.8292 196.742 79.6987 196.429C79.5682 196.116 79.5008 195.781 79.5003 195.442V186.758C79.4952 186.706 79.4952 186.653 79.5003 186.6L98.7993 186.587Z" fill="#FDCD08"/>
<path d="M118.098 186.587H79.5139C79.5534 185.931 79.8428 185.316 80.3227 184.867C80.8026 184.418 81.4365 184.168 82.0947 184.17H115.524C116.181 184.17 116.814 184.42 117.292 184.869C117.77 185.318 118.059 185.933 118.098 186.587Z" fill="#F8EC30"/>
<path d="M118.112 186.745V195.429C118.111 195.768 118.043 196.103 117.912 196.415C117.782 196.727 117.591 197.011 117.35 197.25C117.109 197.489 116.824 197.678 116.51 197.806C116.196 197.935 115.86 198.001 115.521 198H98.7993V186.573H118.098C118.111 186.63 118.115 186.687 118.112 186.745Z" fill="#F58A1F"/>
<path d="M98.7993 172.75V184.177H82.0913C81.7521 184.178 81.416 184.113 81.1021 183.985C80.7883 183.856 80.5028 183.668 80.2622 183.429C80.0216 183.191 79.8305 182.907 79.6997 182.595C79.569 182.283 79.5012 181.948 79.5003 181.61V172.919C79.4954 172.864 79.4954 172.809 79.5003 172.754L98.7993 172.75Z" fill="#FDCD08"/>
<path d="M118.098 172.751H79.5139C79.5535 172.096 79.8431 171.481 80.3232 171.033C80.8032 170.585 81.4371 170.337 82.0947 170.341H115.524C116.181 170.339 116.813 170.587 117.291 171.035C117.77 171.483 118.059 172.097 118.098 172.751Z" fill="#F8EC30"/>
<path d="M118.112 172.919V181.603C118.109 182.286 117.835 182.94 117.349 183.421C116.863 183.903 116.206 184.172 115.521 184.17H98.7993V172.744H118.098C118.11 172.801 118.115 172.86 118.112 172.919Z" fill="#F58A1F"/>
<path d="M98.7993 158.928V170.354H82.0912C81.7516 170.355 81.4151 170.289 81.101 170.16C80.787 170.031 80.5014 169.842 80.2608 169.603C80.0202 169.364 79.8291 169.08 79.6986 168.767C79.5682 168.454 79.5008 168.119 79.5003 167.78V159.096C79.4954 159.043 79.4954 158.99 79.5003 158.938L98.7993 158.928Z" fill="#FDCD08"/>
<path d="M118.098 158.928H79.5139C79.5543 158.273 79.844 157.658 80.3238 157.21C80.8035 156.761 81.4371 156.512 82.0947 156.515H115.524C116.181 156.513 116.813 156.763 117.292 157.211C117.77 157.66 118.059 158.274 118.098 158.928Z" fill="#F8EC30"/>
<path d="M118.112 159.086V167.77C118.11 168.454 117.836 169.109 117.35 169.592C116.865 170.074 116.207 170.345 115.521 170.344H98.7993V158.918H118.098C118.11 158.973 118.115 159.029 118.112 159.086Z" fill="#F58A1F"/>
<path d="M98.7993 145.101V156.528H82.0913C81.7505 156.528 81.4132 156.461 81.0987 156.33C80.7842 156.199 80.4989 156.007 80.2592 155.765C80.0195 155.524 79.8301 155.237 79.7022 154.922C79.5743 154.607 79.5103 154.27 79.5138 153.93V145.249C79.5088 145.196 79.5088 145.142 79.5138 145.088L98.7993 145.101Z" fill="#FDCD08"/>
<path d="M118.098 145.101H79.5139C79.5519 144.446 79.8409 143.83 80.3212 143.381C80.8015 142.932 81.4364 142.684 82.0947 142.688H115.524C116.181 142.686 116.815 142.934 117.293 143.383C117.772 143.832 118.06 144.447 118.098 145.101Z" fill="#F8EC30"/>
<path d="M118.112 145.263V153.93C118.111 154.269 118.044 154.604 117.913 154.917C117.783 155.229 117.592 155.513 117.351 155.752C117.11 155.991 116.825 156.18 116.511 156.308C116.197 156.437 115.86 156.502 115.521 156.501H98.7993V145.074H118.098C118.112 145.136 118.116 145.2 118.112 145.263Z" fill="#F58A1F"/>
<path d="M133.061 186.587V198.013H149.772C150.112 198.014 150.448 197.948 150.761 197.82C151.075 197.691 151.36 197.502 151.601 197.263C151.841 197.024 152.032 196.741 152.162 196.428C152.292 196.116 152.36 195.781 152.36 195.442V186.762C152.364 186.708 152.364 186.654 152.36 186.6L133.061 186.587Z" fill="#FDCD08"/>
<path d="M113.762 186.587H152.353C152.313 185.932 152.023 185.318 151.543 184.869C151.064 184.42 150.43 184.172 149.772 184.174H116.343C115.685 184.171 115.051 184.419 114.571 184.868C114.091 185.317 113.802 185.932 113.762 186.587Z" fill="#F8EC30"/>
<path d="M113.752 186.748V195.429C113.752 195.768 113.819 196.103 113.949 196.416C114.08 196.729 114.271 197.013 114.512 197.252C114.752 197.491 115.038 197.68 115.352 197.808C115.667 197.937 116.003 198.002 116.343 198H133.061V186.573H113.762C113.753 186.631 113.749 186.69 113.752 186.748Z" fill="#FBAE17"/>
<path d="M133.061 172.75V184.177H149.772C150.112 184.178 150.448 184.112 150.761 183.983C151.075 183.855 151.36 183.665 151.601 183.427C151.841 183.188 152.032 182.904 152.162 182.592C152.292 182.279 152.36 181.945 152.36 181.606V172.919C152.363 172.864 152.363 172.809 152.36 172.754L133.061 172.75Z" fill="#FDCD08"/>
<path d="M113.762 172.751H152.353C152.313 172.096 152.023 171.482 151.543 171.034C151.063 170.586 150.43 170.338 149.772 170.341H116.343C115.685 170.337 115.051 170.585 114.571 171.033C114.091 171.481 113.802 172.096 113.762 172.751Z" fill="#F8EC30"/>
<path d="M113.752 172.919V181.603C113.752 181.942 113.82 182.277 113.95 182.589C114.081 182.902 114.272 183.186 114.513 183.425C114.753 183.663 115.039 183.853 115.353 183.981C115.667 184.11 116.003 184.175 116.343 184.174H133.061V172.747H113.762C113.753 172.804 113.75 172.861 113.752 172.919Z" fill="#FBAE17"/>
<path d="M133.061 158.928V170.354H149.772C150.112 170.355 150.448 170.289 150.762 170.159C151.075 170.03 151.36 169.841 151.601 169.602C151.841 169.363 152.032 169.079 152.162 168.766C152.292 168.454 152.36 168.118 152.36 167.78V159.096C152.363 159.043 152.363 158.99 152.36 158.938L133.061 158.928Z" fill="#FDCD08"/>
<path d="M113.762 158.928H152.353C152.313 158.273 152.023 157.658 151.543 157.21C151.064 156.761 150.43 156.512 149.772 156.515H116.343C115.685 156.512 115.052 156.761 114.572 157.21C114.092 157.658 113.802 158.273 113.762 158.928Z" fill="#F8EC30"/>
<path d="M113.752 159.086V167.77C113.752 168.109 113.82 168.444 113.95 168.757C114.081 169.07 114.272 169.354 114.512 169.593C114.753 169.832 115.039 170.021 115.353 170.15C115.667 170.279 116.003 170.345 116.343 170.344H133.061V158.918H113.762C113.753 158.973 113.75 159.029 113.752 159.086Z" fill="#FBAE17"/>
<path d="M133.061 145.101V156.528H149.772C150.112 156.529 150.448 156.463 150.761 156.334C151.075 156.206 151.36 156.016 151.601 155.778C151.841 155.539 152.032 155.255 152.162 154.943C152.292 154.63 152.36 154.295 152.36 153.957V145.276C152.363 145.222 152.363 145.169 152.36 145.115L133.061 145.101Z" fill="#FDCD08"/>
<path d="M113.762 145.101H152.353C152.313 144.447 152.023 143.832 151.543 143.384C151.064 142.935 150.43 142.686 149.772 142.688H116.343C115.685 142.685 115.051 142.934 114.571 143.383C114.091 143.831 113.802 144.446 113.762 145.101Z" fill="#F8EC30"/>
<path d="M113.752 145.263V153.93C113.752 154.269 113.819 154.604 113.949 154.917C114.08 155.23 114.271 155.514 114.512 155.753C114.752 155.992 115.038 156.181 115.352 156.309C115.667 156.438 116.003 156.503 116.343 156.501H133.061V145.074H113.762C113.752 145.137 113.749 145.2 113.752 145.263Z" fill="#FBAE17"/>
<path d="M133.058 131.272V142.698H149.766C150.105 142.699 150.442 142.633 150.756 142.503C151.07 142.374 151.355 142.184 151.595 141.945C151.835 141.705 152.026 141.421 152.156 141.108C152.286 140.795 152.353 140.46 152.353 140.121V131.443C152.357 131.39 152.357 131.336 152.353 131.282L133.058 131.272Z" fill="#FDCD08"/>
<path d="M113.755 131.272H152.346C152.306 130.617 152.016 130.003 151.537 129.554C151.057 129.105 150.423 128.857 149.766 128.859H116.336C115.678 128.856 115.044 129.104 114.564 129.553C114.084 130.002 113.795 130.617 113.755 131.272Z" fill="#F8EC30"/>
<path d="M113.745 131.433V140.111C113.746 140.45 113.813 140.785 113.943 141.098C114.074 141.411 114.265 141.695 114.505 141.935C114.746 142.174 115.032 142.364 115.346 142.493C115.66 142.622 115.996 142.689 116.336 142.688H133.058V131.262H113.755C113.746 131.318 113.743 131.376 113.745 131.433Z" fill="#FBAE17"/>
</g>
<defs>
<clipPath id="clip0_59_175">
<rect width="219" height="198" fill="white"/>
</clipPath>
</defs>
</svg>
