<?xml version="1.0" standalone="no"?><svg xmlns="http://www.w3.org/2000/svg" viewBox="0 0 1440 320"><path fill="#ffffff" fill-opacity="1" d="M0,64L20,96C40,128,80,192,120,208C160,224,200,192,240,176C280,160,320,160,360,181.3C400,203,440,245,480,240C520,235,560,181,600,138.7C640,96,680,64,720,80C760,96,800,160,840,208C880,256,920,288,960,266.7C1000,245,1040,171,1080,160C1120,149,1160,203,1200,229.3C1240,256,1280,256,1320,240C1360,224,1400,192,1420,176L1440,160L1440,320L1420,320C1400,320,1360,320,1320,320C1280,320,1240,320,1200,320C1160,320,1120,320,1080,320C1040,320,1000,320,960,320C920,320,880,320,840,320C800,320,760,320,720,320C680,320,640,320,600,320C560,320,520,320,480,320C440,320,400,320,360,320C320,320,280,320,240,320C200,320,160,320,120,320C80,320,40,320,20,320L0,320Z"></path></svg>