<svg width="179" height="199" viewBox="0 0 179 199" fill="none" xmlns="http://www.w3.org/2000/svg">
<path d="M155.12 19.6986C154.432 16.1014 151.432 15.3988 150.083 16.4386C148.734 17.4784 145.184 21.0195 144.798 32.7948C144.413 44.5702 144.798 54.8561 144.798 54.8561C142.596 54.2659 139.293 56.486 138.963 63.1466C138.632 69.8071 138.44 103.84 136.843 110.754C148.652 109.855 161.616 93.8918 161.616 93.8918L155.12 19.6986Z" fill="#F5CDAF"/>
<path d="M176.315 97.2361C173.975 86.332 165.112 34.0033 163.433 25.2912C161.754 16.5792 153.248 13.544 152.258 30.0688C151.267 46.5937 154.597 70.8189 154.597 76.7768C154.299 82.8949 153.683 88.9925 152.753 95.0441C151.669 95.107 150.608 95.3877 149.63 95.8699C148.652 96.3521 147.777 97.0265 147.055 97.8544L146.863 98.1073C146.664 98.3289 146.48 98.5636 146.312 98.8099C143.56 102.491 132.99 115.953 127.677 121.518C121.512 128.009 106.152 143.354 101.473 153.246C96.7937 163.139 95.4725 170.249 99.794 187.673C100.48 191.263 100.766 194.921 100.647 198.577H139.789C138.901 190.765 140.691 182.88 144.853 176.263C151.817 165.331 169.351 132.956 174.691 123.232C180.031 113.508 178.627 108.14 176.315 97.2361Z" fill="#FFE1C3"/>
<path d="M150.111 95.6622C150.36 95.4838 150.628 95.3331 150.909 95.2125C151.688 94.8699 152.514 94.6519 153.359 94.5662C154.701 94.4214 156.059 94.5552 157.35 94.9596C158.246 95.2019 159.083 95.6318 159.808 96.222C160.533 96.8122 161.13 97.5499 161.561 98.3882C162.404 100.486 162.404 102.838 161.561 104.936C160.814 107.126 159.894 109.251 158.809 111.288C156.634 115.503 154.102 119.719 151.487 124.131C148.872 128.543 146.229 132.562 143.67 136.609C141.11 140.656 138.605 144.141 136.513 147.26C134.421 150.38 132.577 152.881 131.338 154.736L129.411 157.546C129.411 157.546 129.879 156.366 130.898 154.427C131.916 152.487 133.32 149.649 135.219 146.417C137.119 143.185 139.21 139.307 141.66 135.176L149.257 122.557C151.845 118.286 154.487 114.126 156.827 109.995L158.533 107.185C159.054 106.276 159.522 105.338 159.937 104.374C160.712 102.702 160.821 100.787 160.24 99.0347C159.606 97.5932 158.452 96.4561 157.019 95.859C155.859 95.3646 154.616 95.1067 153.359 95.1001C152.247 95.0032 151.129 95.1966 150.111 95.6622Z" fill="#F5CDAF"/>
<g style="mix-blend-mode:screen" opacity="0.7">
<path d="M156.304 98.8941C152.808 96.0837 150.441 97.1236 147.303 102.014C144.165 106.904 144.385 109.405 146.945 111.428C149.505 113.452 153.909 110.894 155.781 108.421C158.781 104.374 159.772 101.648 156.304 98.8941Z" fill="#FFE1C3"/>
</g>
<path d="M23.2181 19.6986C23.9062 16.1014 26.934 15.3988 28.2552 16.4386C29.5765 17.4784 33.1548 21.0195 33.5401 32.7948C33.9255 44.5702 33.5401 54.8561 33.5401 54.8561C35.7422 54.2659 39.0452 56.486 39.4031 63.1466C39.7609 69.8071 39.926 103.84 41.495 110.754C29.7141 109.855 16.722 93.8918 16.722 93.8918L23.2181 19.6986Z" fill="#F5CDAF"/>
<path d="M2.16108 97.2361C4.50075 86.332 13.3364 34.0033 15.0155 25.2912C16.6945 16.5792 25.1999 13.544 26.1908 30.0688C27.1817 46.5937 23.8512 70.8189 23.8512 76.7768C24.1494 82.8949 24.765 88.9925 25.6954 95.0441C26.7794 95.107 27.8407 95.3877 28.8184 95.8699C29.7961 96.3521 30.671 97.0265 31.3931 97.8544L31.5858 98.1073C31.7843 98.3289 31.9682 98.5636 32.1363 98.8099C34.8889 102.491 45.4587 115.953 50.7711 121.518C56.9368 128.009 72.3235 143.354 76.9753 153.246C81.6271 163.139 82.9759 170.249 78.6544 187.673C77.9712 191.264 77.6942 194.922 77.8286 198.577H38.6048C39.486 190.774 37.6966 182.901 33.5401 176.291C26.6037 165.359 9.06997 132.984 3.7025 123.26C-1.66497 113.536 -0.288686 108.14 2.16108 97.2361Z" fill="#FFE1C3"/>
<path d="M28.2278 95.6623C27.2059 95.1727 26.0779 94.9598 24.9522 95.044C23.7038 95.0485 22.4687 95.3064 21.3189 95.8028C19.8723 96.3889 18.707 97.5283 18.0708 98.9785C17.4902 100.731 17.5987 102.646 18.3736 104.318C18.7986 105.282 19.2765 106.22 19.805 107.129L21.484 109.939C23.8512 113.986 26.4661 118.37 29.081 122.501L36.6781 135.12C39.1003 139.138 41.2198 142.989 43.0915 146.361C44.9632 149.733 46.3946 152.431 47.4405 154.371C47.9852 155.381 48.4723 156.422 48.8994 157.49C48.8994 157.49 48.2388 156.45 46.9726 154.68C45.7064 152.909 43.8897 150.352 41.7978 147.204C39.7059 144.056 37.1735 140.515 34.6687 136.553C32.1639 132.59 29.4389 128.375 26.824 124.075C24.209 119.775 21.7042 115.447 19.5022 111.232C18.4282 109.189 17.508 107.066 16.7496 104.88C15.9214 102.779 15.9214 100.433 16.7496 98.3322C17.1775 97.4968 17.7701 96.7609 18.4901 96.1708C19.2102 95.5807 20.0421 95.1492 20.9335 94.9035C22.2244 94.4991 23.5819 94.3653 24.9247 94.51C25.7769 94.6013 26.6114 94.8191 27.402 95.1565C27.6941 95.2945 27.971 95.4641 28.2278 95.6623Z" fill="#F5CDAF"/>
<g style="mix-blend-mode:screen" opacity="0.7">
<path d="M22.0896 98.8941C25.5578 96.0837 27.925 97.1236 31.0629 102.014C34.2008 106.904 34.0081 109.405 31.4207 111.428C28.8333 113.452 24.4843 110.894 22.6125 108.421C19.5572 104.374 18.6764 101.648 22.0896 98.8941Z" fill="#FFE1C3"/>
</g>
<path d="M96.8132 64.5425C96.8132 68.0273 95.6355 71.4338 93.4291 74.3313C91.2227 77.2287 88.0867 79.4869 84.4176 80.8204C80.7485 82.1538 76.7112 82.5025 72.8163 81.8224C68.9213 81.1423 65.3437 79.464 62.5358 76.9996C59.728 74.5353 57.816 71.3956 57.0417 67.9777C56.2674 64.5597 56.6655 61.017 58.1858 57.7977C59.7061 54.5784 62.2802 51.827 65.5826 49.8914C68.885 47.9558 72.7673 46.923 76.7386 46.9237C82.0631 46.9246 87.1691 48.7813 90.9338 52.0854C94.6984 55.3894 96.8132 59.8703 96.8132 64.5425Z" fill="#FDCD08"/>
<path d="M93.1093 64.5426C93.1093 67.3825 92.1496 70.1587 90.3514 72.52C88.5532 74.8813 85.9975 76.7217 83.0073 77.8084C80.0171 78.895 76.7268 79.1792 73.5526 78.6249C70.3784 78.0706 67.4628 76.7028 65.1745 74.6944C62.8863 72.686 61.3281 70.1272 60.6972 67.3417C60.0663 64.5562 60.3908 61.6691 61.6299 59.0455C62.869 56.4218 64.9669 54.1796 67.6583 52.6022C70.3496 51.0249 73.5137 50.1834 76.7501 50.1841C81.0892 50.185 85.2502 51.6981 88.3181 54.3908C91.3859 57.0834 93.1093 60.735 93.1093 64.5426Z" fill="#F58A1F"/>
<path d="M89.2101 64.5425C89.2101 66.7058 88.479 68.8204 87.1093 70.619C85.7396 72.4177 83.7928 73.8195 81.5151 74.6472C79.2374 75.4749 76.7312 75.6913 74.3133 75.2691C71.8955 74.8468 69.6747 73.8048 67.9317 72.2749C66.1888 70.745 65.002 68.7959 64.5215 66.6741C64.041 64.5524 64.2884 62.3532 65.2323 60.3548C66.1763 58.3564 67.7744 56.6485 69.8246 55.4471C71.8747 54.2458 74.2849 53.6049 76.7501 53.6056C80.0551 53.6065 83.2243 54.7591 85.5609 56.8101C87.8975 58.8611 89.2101 61.6425 89.2101 64.5425Z" fill="#FDCD08"/>
<path d="M81.7601 64.5157C81.0349 63.8972 79.8131 63.4367 78.0945 63.1342L76.3977 62.8351C75.8071 62.7607 75.2393 62.5836 74.7277 62.3142C74.5774 62.2163 74.4565 62.0877 74.3757 61.9395C74.295 61.7913 74.2567 61.628 74.2642 61.4638C74.2517 61.2469 74.309 61.0314 74.4295 60.8417C74.5501 60.6521 74.7291 60.4961 74.946 60.3916C75.6079 60.1268 76.3347 60.0113 77.0603 60.0555C77.8353 60.0602 78.6068 60.146 79.3585 60.311C80.2105 60.4945 81.0413 60.7465 81.8406 61.0639V58.1935C80.9256 57.978 79.9971 57.8097 79.0598 57.6893C78.784 57.6557 78.5235 57.6356 78.2554 57.612V56.0323H75.2678V57.5785C74.1354 57.6436 73.051 58.004 72.1537 58.6136C71.1579 59.3396 70.6612 60.3771 70.6637 61.726C70.6361 62.1958 70.7169 62.6658 70.9011 63.1076C71.0854 63.5494 71.3695 63.9541 71.7362 64.2972C72.4487 64.9359 73.5786 65.3996 75.1261 65.6887L76.6582 65.9878C77.3282 66.0736 77.9695 66.2846 78.5388 66.6063C78.6977 66.7273 78.8228 66.8787 78.9045 67.0489C78.9862 67.219 79.0223 67.4034 79.01 67.5877C79.0168 67.8071 78.9559 68.0242 78.8339 68.2158C78.7119 68.4075 78.5332 68.5667 78.3167 68.6766C77.7043 68.963 77.0138 69.0956 76.3211 69.0599C75.4138 69.0588 74.5112 68.9457 73.6399 68.7237C72.648 68.4634 71.6892 68.1142 70.7787 67.6818V70.6328C71.7399 70.9492 72.7306 71.1921 73.7395 71.3589C74.2413 71.4462 74.7469 71.5033 75.2486 71.547V73.0965H78.2363V71.5269C79.3533 71.454 80.4239 71.1043 81.3235 70.5186C82.3449 69.7881 82.8492 68.6744 82.8365 67.1776C82.8441 66.0046 82.4841 65.124 81.7601 64.5157Z" fill="#FCEE3B"/>
<path d="M64.2939 53.0706L61.5295 55.498L64.2958 57.9237L67.0601 55.4963L64.2939 53.0706Z" fill="white"/>
<path d="M96.7213 17.6187C96.7213 21.1034 95.5437 24.5098 93.3375 27.4072C91.1312 30.3045 87.9954 32.5627 84.3266 33.8962C80.6577 35.2298 76.6206 35.5787 72.7258 34.8989C68.8309 34.2191 65.2533 32.5411 62.4453 30.0771C59.6372 27.613 57.725 24.4736 56.9502 21.0559C56.1755 17.6382 56.5731 14.0957 58.0928 10.8763C59.6125 7.65689 62.186 4.90522 65.4879 2.96925C68.7898 1.03327 72.6717 0 76.6429 0C81.968 0 87.075 1.85627 90.8405 5.16042C94.6059 8.46457 96.7213 12.9459 96.7213 17.6187Z" fill="#FDCD08"/>
<path d="M94.5969 20.7166C94.9583 12.7885 87.927 6.10442 78.892 5.7873C69.8571 5.47017 62.2399 11.6401 61.8785 19.5682C61.5171 27.4963 68.5483 34.1804 77.5833 34.4975C86.6182 34.8147 94.2355 28.6447 94.5969 20.7166Z" fill="#F58A1F"/>
<path d="M89.1067 17.6186C89.1074 19.7819 88.3771 21.8968 87.008 23.6958C85.6389 25.4948 83.6926 26.8972 81.4152 27.7255C79.1378 28.5538 76.6316 28.7708 74.2137 28.3492C71.7957 27.9276 69.5745 26.8861 67.831 25.3567C66.0875 23.8273 64.9001 21.8786 64.4189 19.757C63.9376 17.6353 64.1842 15.4361 65.1275 13.4374C66.0707 11.4387 67.6682 9.73039 69.718 8.52848C71.7677 7.32656 74.1776 6.68506 76.6429 6.68506C78.2795 6.68462 79.9001 6.96712 81.4123 7.51638C82.9244 8.06565 84.2985 8.87096 85.4559 9.88628C86.6133 10.9016 87.5314 12.107 88.1579 13.4338C88.7843 14.7605 89.1067 16.1825 89.1067 17.6186Z" fill="#FDCD08"/>
<path d="M81.6529 17.5884C80.9328 16.9699 79.7122 16.5095 77.9911 16.207L76.2943 15.9078C75.7019 15.8334 75.1327 15.6551 74.6205 15.3836C74.4714 15.2856 74.3516 15.1573 74.2716 15.0098C74.1915 14.8623 74.1535 14.6999 74.1608 14.5366C74.148 14.3192 74.2051 14.1031 74.3257 13.9129C74.4463 13.7227 74.6254 13.5661 74.8426 13.461C75.5052 13.1981 76.2314 13.0827 76.9569 13.1249C77.7319 13.1294 78.5034 13.2151 79.2551 13.3804C80.1068 13.5632 80.9376 13.8141 81.7372 14.1299V11.2629C80.8227 11.0458 79.894 10.8775 78.9564 10.7587C78.6806 10.7251 78.4163 10.705 78.152 10.6814V9.09839H75.1644V10.6444C74.0322 10.7132 72.9487 11.0746 72.0503 11.683C71.0545 12.409 70.5565 13.4465 70.5565 14.7954C70.5298 15.2652 70.6109 15.7349 70.7952 16.1766C70.9794 16.6183 71.263 17.0229 71.629 17.3666C72.3465 18.0029 73.4765 18.4668 75.0188 18.7581L76.5509 19.0572C77.2201 19.1439 77.861 19.3535 78.4316 19.6723C78.5979 19.8103 78.7261 19.9798 78.8065 20.1678C78.8869 20.3559 78.9174 20.5576 78.8956 20.7576C78.8738 20.9575 78.8004 21.1505 78.6808 21.3218C78.5612 21.4931 78.3987 21.6382 78.2056 21.7461C77.5925 22.0304 76.9023 22.1617 76.2101 22.1258C75.3026 22.1265 74.3998 22.0133 73.5288 21.7897C72.5354 21.5316 71.5752 21.1836 70.6638 20.7512V23.7022C71.6271 24.0166 72.6188 24.2595 73.6284 24.4282C74.1302 24.5122 74.6358 24.5727 75.1376 24.6131V26.1658H78.1252V24.5929C79.2427 24.5214 80.3137 24.1716 81.2124 23.5845C82.2236 22.8552 82.7445 21.7461 82.7445 20.247C82.7407 19.0807 82.3807 18.2034 81.6529 17.5884Z" fill="#FCEE3B"/>
<path d="M64.183 6.15647L61.4177 8.58301L64.183 11.0095L66.9483 8.58301L64.183 6.15647Z" fill="white"/>
<path d="M136.166 35.2374C136.166 38.722 134.988 42.1284 132.782 45.0258C130.576 47.9232 127.44 50.1815 123.771 51.515C120.102 52.8485 116.065 53.1974 112.17 52.5176C108.275 51.8377 104.698 50.1597 101.89 47.6957C99.0817 45.2317 97.1694 42.0923 96.3947 38.6747C95.62 35.257 96.0176 31.7144 97.5373 28.495C99.057 25.2756 101.63 22.5239 104.932 20.588C108.234 18.652 112.116 17.6187 116.087 17.6187C121.412 17.6187 126.519 19.4749 130.285 22.7791C134.05 26.0832 136.166 30.5646 136.166 35.2374Z" fill="#FDCD08"/>
<path d="M132.435 35.2374C132.435 38.0772 131.475 40.8534 129.677 43.2146C127.879 45.5758 125.324 47.4162 122.334 48.5029C119.344 49.5897 116.054 49.874 112.88 49.32C109.706 48.766 106.79 47.3985 104.502 45.3904C102.213 43.3824 100.655 40.8239 100.023 38.0387C99.392 35.2534 99.716 32.3663 100.954 29.7427C102.193 27.119 104.29 24.8765 106.981 23.2988C109.672 21.721 112.836 20.8789 116.072 20.8789C120.412 20.8789 124.574 22.3917 127.642 25.0844C130.711 27.7772 132.435 31.4293 132.435 35.2374Z" fill="#F58A1F"/>
<path d="M128.551 35.2374C128.551 37.4005 127.82 39.5151 126.451 41.3137C125.081 43.1122 123.134 44.5141 120.857 45.3418C118.58 46.1696 116.074 46.3862 113.656 45.9642C111.238 45.5422 109.017 44.5005 107.274 42.971C105.531 41.4414 104.344 39.4927 103.863 37.3711C103.382 35.2496 103.629 33.0505 104.572 31.0521C105.516 29.0536 107.113 27.3455 109.163 26.1437C111.212 24.9419 113.622 24.3005 116.087 24.3005C119.393 24.3005 122.563 25.4528 124.901 27.5039C127.238 29.555 128.551 32.3367 128.551 35.2374Z" fill="#FDCD08"/>
<path d="M121.101 35.2037C120.379 34.5898 119.157 34.1293 117.436 33.8223L115.739 33.5232C115.147 33.4519 114.579 33.2746 114.069 33.0022C113.918 32.9043 113.798 32.7757 113.717 32.6275C113.636 32.4793 113.598 32.316 113.605 32.1518C113.593 31.9351 113.651 31.7196 113.771 31.5301C113.892 31.3406 114.07 31.1845 114.287 31.0797C114.95 30.8163 115.676 30.7009 116.401 30.7436C117.176 30.7489 117.947 30.8335 118.7 30.9957C119.552 31.1792 120.382 31.4312 121.182 31.7485V28.8883C120.267 28.6717 119.338 28.5023 118.401 28.3807C118.129 28.3471 117.861 28.3303 117.596 28.3034V26.7238H114.609V28.2698C113.477 28.3376 112.394 28.6978 111.495 29.305C110.499 30.031 110.001 31.0696 110.001 32.4208C109.974 32.89 110.055 33.3593 110.239 33.8005C110.424 34.2416 110.707 34.6457 111.073 34.9886C111.794 35.6272 112.92 36.091 114.463 36.3801L115.995 36.6826C116.666 36.7655 117.308 36.9729 117.88 37.2909C118.047 37.4281 118.176 37.597 118.257 37.7848C118.338 37.9725 118.37 38.1741 118.348 38.374C118.327 38.5739 118.253 38.7668 118.134 38.938C118.014 39.1091 117.851 39.254 117.658 39.3613C117.046 39.6481 116.355 39.7808 115.662 39.7445C114.755 39.7452 113.852 39.632 112.981 39.4084C111.988 39.1502 111.029 38.8009 110.12 38.3665V41.3175C111.081 41.6338 112.072 41.8778 113.081 42.0468C113.582 42.1308 114.088 42.1914 114.59 42.2317V43.7812H117.577V42.2115C118.687 42.1354 119.749 41.7858 120.642 41.2032C121.663 40.4727 122.174 39.3602 122.174 37.8657C122.184 36.7072 121.826 35.8199 121.101 35.2037Z" fill="#FCEE3B"/>
<path d="M103.649 23.7368L100.883 26.163L103.648 28.59L106.414 26.1639L103.649 23.7368Z" fill="white"/>
</svg>
